<svg width="21" height="21" viewBox="0 0 21 21" fill="none" xmlns="http://www.w3.org/2000/svg">
<circle cx="10.5" cy="10.5" r="9.75" fill="#0A1828" stroke="white" stroke-width="1.5"/>
<path d="M15.75 13.7778C15.75 14.0356 15.6494 14.2829 15.4704 14.4652C15.2914 14.6476 15.0486 14.75 14.7955 14.75H6.20455C5.95138 14.75 5.70859 14.6476 5.52958 14.4652C5.35057 14.2829 5.25 14.0356 5.25 13.7778V8.43056C5.25 8.17271 5.35057 7.92542 5.52958 7.74309C5.70859 7.56076 5.95138 7.45833 6.20455 7.45833H8.11364L9.06818 6H11.9318L12.8864 7.45833H14.7955C15.0486 7.45833 15.2914 7.56076 15.4704 7.74309C15.6494 7.92542 15.75 8.17271 15.75 8.43056V13.7778Z" stroke="#F8F8F8" stroke-width="0.75" stroke-linecap="round" stroke-linejoin="round"/>
<path d="M10.5 12.416C11.4665 12.416 12.25 11.6325 12.25 10.666C12.25 9.69952 11.4665 8.91602 10.5 8.91602C9.5335 8.91602 8.75 9.69952 8.75 10.666C8.75 11.6325 9.5335 12.416 10.5 12.416Z" stroke="#F8F8F8" stroke-width="0.75" stroke-linecap="round" stroke-linejoin="round"/>
</svg>
