<svg width="17" height="17" viewBox="0 0 17 17" fill="none" xmlns="http://www.w3.org/2000/svg">
<path d="M10.0553 2.41409C10.6142 1.80856 10.8936 1.5058 11.1906 1.32919C11.9071 0.903069 12.7893 0.889818 13.5178 1.29424C13.8197 1.46185 14.1077 1.75609 14.6838 2.34457C15.2598 2.93305 15.5479 3.22729 15.712 3.53569C16.1079 4.27984 16.0949 5.18109 15.6777 5.91303C15.5049 6.21637 15.2085 6.50183 14.6157 7.07276L7.56297 13.8657C6.43966 14.9477 5.878 15.4886 5.17605 15.7628C4.47409 16.037 3.7024 16.0168 2.15902 15.9764L1.94903 15.9709C1.47918 15.9587 1.24425 15.9525 1.10769 15.7975C0.971127 15.6426 0.989771 15.4032 1.02706 14.9246L1.04731 14.6647C1.15226 13.3177 1.20473 12.6441 1.46778 12.0387C1.73083 11.4332 2.18458 10.9416 3.09207 9.95838L10.0553 2.41409Z" stroke="#2B3499" stroke-width="2" stroke-linejoin="round"/>
<path d="M9.25024 2.50043L14.5002 7.75043" stroke="#2B3499" stroke-width="2" stroke-linejoin="round"/>
<path d="M10 16L16 16" stroke="#2B3499" stroke-width="2" stroke-linecap="round" stroke-linejoin="round"/>
</svg>
