<svg width="25" height="24" viewBox="0 0 25 24" fill="none" xmlns="http://www.w3.org/2000/svg">
<path d="M12.1622 2.28955C6.84137 2.28955 2.51245 6.61847 2.51245 11.9393C2.51245 17.2601 6.84137 21.589 12.1622 21.589C17.483 21.589 21.8119 17.2601 21.8119 11.9393C21.8119 6.61847 17.483 2.28955 12.1622 2.28955ZM13.6467 16.393H10.6776C10.4807 16.393 10.2919 16.3148 10.1527 16.1756C10.0135 16.0364 9.93531 15.8476 9.93531 15.6507C9.93531 15.4538 10.0135 15.265 10.1527 15.1258C10.2919 14.9866 10.4807 14.9084 10.6776 14.9084H13.6467C13.8436 14.9084 14.0324 14.9866 14.1716 15.1258C14.3108 15.265 14.389 15.4538 14.389 15.6507C14.389 15.8476 14.3108 16.0364 14.1716 16.1756C14.0324 16.3148 13.8436 16.393 13.6467 16.393ZM15.8736 13.4238H8.45074C8.25387 13.4238 8.06507 13.3456 7.92586 13.2064C7.78665 13.0672 7.70845 12.8784 7.70845 12.6815C7.70845 12.4847 7.78665 12.2959 7.92586 12.1567C8.06507 12.0175 8.25387 11.9393 8.45074 11.9393H15.8736C16.0705 11.9393 16.2593 12.0175 16.3985 12.1567C16.5377 12.2959 16.6159 12.4847 16.6159 12.6815C16.6159 12.8784 16.5377 13.0672 16.3985 13.2064C16.2593 13.3456 16.0705 13.4238 15.8736 13.4238ZM17.3582 10.4547H6.96616C6.7693 10.4547 6.58049 10.3765 6.44129 10.2373C6.30208 10.0981 6.22388 9.90927 6.22388 9.71241C6.22388 9.51554 6.30208 9.32674 6.44129 9.18753C6.58049 9.04833 6.7693 8.97012 6.96616 8.97012H17.3582C17.555 8.97012 17.7438 9.04833 17.883 9.18753C18.0222 9.32674 18.1004 9.51554 18.1004 9.71241C18.1004 9.90927 18.0222 10.0981 17.883 10.2373C17.7438 10.3765 17.555 10.4547 17.3582 10.4547Z" fill="white"/>
</svg>
