<svg width="34" height="33" viewBox="0 0 34 33" fill="none" xmlns="http://www.w3.org/2000/svg">
<path fill-rule="evenodd" clip-rule="evenodd" d="M16.313 30.3109H17.6866C20.7881 30.3109 22.9182 30.3079 24.5562 30.148C26.1517 29.9923 26.9894 29.7084 27.5909 29.3267C28.3621 28.8372 29.0167 28.1868 29.5093 27.4204C29.8934 26.8228 30.1791 25.9903 30.3359 24.4049C30.4968 22.7773 30.4998 20.6607 30.4998 17.5788C30.4998 13.8593 30.4572 12.7063 30.0795 11.7311C29.8677 11.184 29.5795 10.6691 29.2234 10.2016C28.5889 9.3684 27.6256 8.72418 24.4456 6.76216L24.1211 6.56194C22.2416 5.40235 20.9698 4.62014 19.9191 4.08635C18.9092 3.57333 18.2686 3.37863 17.6985 3.31541C17.2341 3.26392 16.7655 3.26392 16.3011 3.31541C15.731 3.37863 15.0904 3.57333 14.0805 4.08635C13.0298 4.62014 11.758 5.40235 9.87854 6.56194L9.55402 6.76216C6.37402 8.72418 5.41072 9.3684 4.77617 10.2016C4.42013 10.6691 4.13194 11.184 3.92006 11.7311C3.54244 12.7063 3.4998 13.8593 3.4998 17.5788C3.4998 20.6607 3.50285 22.7773 3.66375 24.4049C3.82048 25.9903 4.10618 26.8228 4.49033 27.4204C4.98288 28.1868 5.63752 28.8372 6.40871 29.3267C7.01018 29.7084 7.84794 29.9923 9.44346 30.148C11.0814 30.3079 13.2115 30.3109 16.313 30.3109ZM1.40017 10.7677C0.799805 12.3181 0.799805 14.0716 0.799805 17.5788C0.799805 23.635 0.799805 26.663 2.21485 28.8646C2.91849 29.9593 3.85368 30.8886 4.95538 31.5878C7.17093 32.9939 10.2183 32.9939 16.313 32.9939H17.6866C23.7813 32.9939 26.8287 32.9939 29.0442 31.5878C30.1459 30.8886 31.0811 29.9593 31.7848 28.8646C33.1998 26.663 33.1998 23.635 33.1998 17.5788C33.1998 14.0716 33.1998 12.3181 32.5994 10.7677C32.2968 9.98599 31.8851 9.25044 31.3764 8.58258C30.3676 7.25793 28.8683 6.33291 25.8698 4.48287L25.5453 4.28265C21.8613 2.00967 20.0194 0.873185 17.9979 0.64904C17.3346 0.575483 16.665 0.575483 16.0017 0.64904C13.9803 0.873185 12.1383 2.00967 8.45429 4.28265L8.12976 4.48287C5.13128 6.3329 3.63202 7.25793 2.62319 8.58258C2.11456 9.25044 1.70286 9.98599 1.40017 10.7677Z" fill="#1F2937"/>
<path fill-rule="evenodd" clip-rule="evenodd" d="M10.2498 24.2001C10.2498 23.4545 10.8542 22.8501 11.5998 22.8501H22.3998C23.1454 22.8501 23.7498 23.4545 23.7498 24.2001C23.7498 24.9457 23.1454 25.5501 22.3998 25.5501H11.5998C10.8542 25.5501 10.2498 24.9457 10.2498 24.2001Z" fill="#1F2937"/>
</svg>
