<svg width="19" height="21" viewBox="0 0 19 21" fill="none" xmlns="http://www.w3.org/2000/svg">
<path d="M11.6667 16.2224C11.6012 18.0855 10.2294 19.6674 8.39168 19.6165C7.96413 19.6047 7.43567 19.436 6.37877 19.0986C3.83521 18.2866 1.62716 16.922 1.09738 13.8649C1 13.303 1 12.6707 1 11.406L1 9.72142C1 8.45675 1 7.82441 1.09738 7.26247C1.62716 4.20543 3.83521 2.8408 6.37878 2.02883C7.43568 1.69143 7.96413 1.52274 8.39168 1.5109C10.2294 1.46002 11.6012 3.04191 11.6667 4.90496" stroke="#B30000" stroke-width="2" stroke-linecap="round"/>
<path d="M17.7778 10.8152H8M17.7778 10.8152C17.7778 10.1108 16.0051 8.79471 15.5556 8.30023M17.7778 10.8152C17.7778 11.5197 16.0051 12.8358 15.5556 13.3302" stroke="#B30000" stroke-width="2" stroke-linecap="round" stroke-linejoin="round"/>
</svg>
